<svg width="601" height="378" viewBox="0 0 601 378" fill="none" xmlns="http://www.w3.org/2000/svg">
<g clip-path="url(#clip0)">
<path d="M584.189 300H317.811C308.526 300 301 292.474 301 283.189V62.0689H601V283.189C601 292.474 593.474 300 584.189 300Z" fill="#ECF0F1"/>
<path d="M601 62.0689H301V16.8105C301 7.52578 308.526 0 317.811 0H584.189C593.474 0 601 7.52578 601 16.8105V62.0689Z" fill="#687492"/>
<path d="M321.689 31.0342C321.689 36.7474 326.321 41.3789 332.034 41.3789C337.747 41.3789 342.379 36.7474 342.379 31.0342C342.379 25.3209 337.747 20.6895 332.034 20.6895C326.321 20.6895 321.689 25.3209 321.689 31.0342Z" fill="#E64C3C"/>
<path d="M363.069 31.0342C363.069 36.7474 367.7 41.3789 373.414 41.3789C379.127 41.3789 383.758 36.7474 383.758 31.0342C383.758 25.3209 379.127 20.6895 373.414 20.6895C367.7 20.6895 363.069 25.3209 363.069 31.0342Z" fill="#F0C419"/>
<path d="M404.448 31.0342C404.448 36.7474 409.08 41.3789 414.793 41.3789C420.506 41.3789 425.138 36.7474 425.138 31.0342C425.138 25.3209 420.506 20.6895 414.793 20.6895C409.08 20.6895 404.448 25.3209 404.448 31.0342Z" fill="#24AE5F"/>
<path d="M456.172 62.0689H445.827V300H456.172V62.0689Z" fill="#BDC3C7"/>
<path d="M580.31 87.9311H471.689V170.689H580.31V87.9311Z" fill="#E64C3C"/>
<path d="M580.31 191.379H471.689V274.138H580.31V191.379Z" fill="#8697CB"/>
<path d="M563.277 229.102L547.76 213.584C545.743 211.562 542.464 211.562 540.446 213.584L523.414 230.617L516.726 223.929C514.708 221.906 511.429 221.906 509.412 223.929L488.723 244.618C486.7 246.641 486.7 249.91 488.723 251.932C489.731 252.94 491.055 253.447 492.379 253.447C493.704 253.447 495.028 252.94 496.036 251.932L513.069 234.899L530.102 251.933C531.11 252.941 532.434 253.448 533.758 253.448C535.083 253.448 536.407 252.941 537.415 251.933C539.438 249.91 539.438 246.641 537.415 244.619L530.727 237.931L544.103 224.555L555.964 236.416C556.972 237.424 558.296 237.931 559.621 237.931C560.945 237.931 562.269 237.424 563.277 236.416C565.3 234.393 565.3 231.124 563.277 229.102Z" fill="white"/>
<path d="M513.069 108.621V150L549.276 129.311L513.069 108.621Z" fill="white"/>
<path d="M414.793 170.689H337.207V153.202C337.207 145.722 343.274 139.655 350.753 139.655H401.246C408.726 139.655 414.793 145.723 414.793 153.202V170.689H414.793Z" fill="#0494E5"/>
<path d="M376 118.966C385.998 118.966 394.104 110.861 394.104 100.862C394.104 90.8637 385.998 82.7584 376 82.7584C366.002 82.7584 357.896 90.8637 357.896 100.862C357.896 110.861 366.002 118.966 376 118.966Z" fill="#0494E5"/>
<path d="M399.276 279.311H357.896C352.181 279.311 347.552 274.681 347.552 268.966C347.552 263.251 352.181 258.621 357.896 258.621H399.276C404.991 258.621 409.621 263.251 409.621 268.966C409.621 274.681 404.992 279.311 399.276 279.311Z" fill="#25B899"/>
<path d="M409.621 217.242H347.552C344.696 217.242 342.379 214.929 342.379 212.069C342.379 209.208 344.696 206.896 347.552 206.896H409.621C412.476 206.896 414.793 209.208 414.793 212.069C414.793 214.929 412.476 217.242 409.621 217.242Z" fill="#BDC3C7"/>
<path d="M399.276 237.931H357.896C355.041 237.931 352.724 235.619 352.724 232.758C352.724 229.898 355.041 227.586 357.896 227.586H399.276C402.131 227.586 404.448 229.898 404.448 232.758C404.448 235.619 402.131 237.931 399.276 237.931Z" fill="#BDC3C7"/>
<path d="M399.276 196.552H357.896C355.041 196.552 352.724 194.239 352.724 191.379C352.724 188.518 355.041 186.206 357.896 186.206H399.276C402.131 186.206 404.448 188.518 404.448 191.379C404.448 194.239 402.131 196.552 399.276 196.552Z" fill="#BDC3C7"/>
</g>
<g clip-path="url(#clip1)">
<path d="M283.189 300H16.8105C7.52578 300 0 292.474 0 283.189V62.0689H300V283.189C300 292.474 292.474 300 283.189 300Z" fill="#ECF0F1"/>
<path d="M300 62.0689H0V16.8105C0 7.52578 7.52578 0 16.8105 0H283.189C292.474 0 300 7.52578 300 16.8105V62.0689Z" fill="#687492"/>
<path d="M20.6895 31.0342C20.6895 36.7474 25.3209 41.3789 31.0342 41.3789C36.7474 41.3789 41.3789 36.7474 41.3789 31.0342C41.3789 25.3209 36.7474 20.6895 31.0342 20.6895C25.3209 20.6895 20.6895 25.3209 20.6895 31.0342Z" fill="#E64C3C"/>
<path d="M62.0689 31.0342C62.0689 36.7474 66.7004 41.3789 72.4137 41.3789C78.1269 41.3789 82.7584 36.7474 82.7584 31.0342C82.7584 25.3209 78.1269 20.6895 72.4137 20.6895C66.7004 20.6895 62.0689 25.3209 62.0689 31.0342Z" fill="#F0C419"/>
<path d="M103.448 31.0342C103.448 36.7474 108.08 41.3789 113.793 41.3789C119.506 41.3789 124.138 36.7474 124.138 31.0342C124.138 25.3209 119.506 20.6895 113.793 20.6895C108.08 20.6895 103.448 25.3209 103.448 31.0342Z" fill="#24AE5F"/>
<path d="M155.172 62.0689H144.827V300H155.172V62.0689Z" fill="#BDC3C7"/>
<path d="M279.31 87.9311H170.689V170.689H279.31V87.9311Z" fill="#E64C3C"/>
<path d="M279.31 191.379H170.689V274.138H279.31V191.379Z" fill="#8697CB"/>
<path d="M262.277 229.102L246.76 213.584C244.743 211.562 241.464 211.562 239.446 213.584L222.414 230.617L215.726 223.929C213.708 221.906 210.429 221.906 208.412 223.929L187.723 244.618C185.7 246.641 185.7 249.91 187.723 251.932C188.731 252.94 190.055 253.447 191.379 253.447C192.704 253.447 194.028 252.94 195.036 251.932L212.069 234.899L229.102 251.933C230.11 252.941 231.434 253.448 232.758 253.448C234.083 253.448 235.407 252.941 236.415 251.933C238.438 249.91 238.438 246.641 236.415 244.619L229.727 237.931L243.103 224.555L254.964 236.416C255.972 237.424 257.296 237.931 258.621 237.931C259.945 237.931 261.269 237.424 262.277 236.416C264.3 234.393 264.3 231.124 262.277 229.102Z" fill="white"/>
<path d="M212.069 108.621V150L248.276 129.311L212.069 108.621Z" fill="white"/>
<path d="M113.793 170.689H36.2068V153.202C36.2068 145.722 42.2742 139.655 49.7531 139.655H100.246C107.726 139.655 113.793 145.723 113.793 153.202V170.689H113.793Z" fill="#0494E5"/>
<path d="M75 118.966C84.9984 118.966 93.1037 110.861 93.1037 100.862C93.1037 90.8637 84.9984 82.7584 75 82.7584C65.0016 82.7584 56.8963 90.8637 56.8963 100.862C56.8963 110.861 65.0016 118.966 75 118.966Z" fill="#0494E5"/>
<path d="M98.2758 279.311H56.8963C51.1811 279.311 46.5516 274.681 46.5516 268.966C46.5516 263.251 51.1811 258.621 56.8963 258.621H98.2758C103.991 258.621 108.621 263.251 108.621 268.966C108.621 274.681 103.992 279.311 98.2758 279.311Z" fill="#25B899"/>
<path d="M108.62 217.242H46.5516C43.6963 217.242 41.3789 214.929 41.3789 212.069C41.3789 209.208 43.6963 206.896 46.5516 206.896H108.62C111.476 206.896 113.793 209.208 113.793 212.069C113.793 214.929 111.476 217.242 108.62 217.242Z" fill="#BDC3C7"/>
<path d="M98.2758 237.931H56.8963C54.041 237.931 51.7236 235.619 51.7236 232.758C51.7236 229.898 54.041 227.586 56.8963 227.586H98.2758C101.131 227.586 103.448 229.898 103.448 232.758C103.448 235.619 101.131 237.931 98.2758 237.931Z" fill="#BDC3C7"/>
<path d="M98.2758 196.552H56.8963C54.041 196.552 51.7236 194.239 51.7236 191.379C51.7236 188.518 54.041 186.206 56.8963 186.206H98.2758C101.131 186.206 103.448 188.518 103.448 191.379C103.448 194.239 101.131 196.552 98.2758 196.552Z" fill="#BDC3C7"/>
</g>
<path d="M433.189 378H166.811C157.526 378 150 370.474 150 361.189V140.069H450V361.189C450 370.474 442.474 378 433.189 378Z" fill="#ECF0F1"/>
<path d="M450 140.069H150V94.8105C150 85.5258 157.526 78 166.811 78H433.189C442.474 78 450 85.5258 450 94.8105V140.069Z" fill="#687492"/>
<path d="M170.689 109.034C170.689 114.747 175.321 119.379 181.034 119.379C186.747 119.379 191.379 114.747 191.379 109.034C191.379 103.321 186.747 98.6895 181.034 98.6895C175.321 98.6895 170.689 103.321 170.689 109.034Z" fill="#E64C3C"/>
<path d="M212.069 109.034C212.069 114.747 216.7 119.379 222.414 119.379C228.127 119.379 232.758 114.747 232.758 109.034C232.758 103.321 228.127 98.6895 222.414 98.6895C216.7 98.6895 212.069 103.321 212.069 109.034Z" fill="#F0C419"/>
<path d="M253.448 109.034C253.448 114.747 258.08 119.379 263.793 119.379C269.506 119.379 274.138 114.747 274.138 109.034C274.138 103.321 269.506 98.6895 263.793 98.6895C258.08 98.6895 253.448 103.321 253.448 109.034Z" fill="#24AE5F"/>
<path d="M383.739 288.346L369.032 279.856L380.159 275.115C384.119 273.428 385.962 268.849 384.275 264.889C382.587 260.929 378.009 259.088 374.049 260.774L352.145 270.106L325.122 254.504C325.51 252.73 325.721 250.89 325.721 249C325.721 247.111 325.51 245.27 325.122 243.496L352.145 227.894L374.049 237.226C378.009 238.914 382.587 237.071 384.275 233.111C385.962 229.151 384.119 224.572 380.159 222.885L369.032 218.144L383.739 209.654C387.467 207.502 388.744 202.735 386.592 199.006C384.439 195.278 379.673 194 375.945 196.154L361.238 204.644L362.696 192.637C363.215 188.364 360.171 184.479 355.898 183.96C351.624 183.44 347.74 186.485 347.221 190.758L344.351 214.394L317.319 230.001C314.61 227.528 311.37 225.629 307.794 224.489V193.287L326.828 178.985C330.269 176.399 330.963 171.512 328.377 168.071C325.791 164.63 320.905 163.937 317.463 166.522L307.794 173.788V156.807C307.794 152.502 304.304 149.012 300 149.012C295.696 149.012 292.206 152.502 292.206 156.807V173.789L282.537 166.523C279.095 163.936 274.209 164.63 271.623 168.072C269.037 171.513 269.731 176.399 273.172 178.985L292.206 193.288V224.489C288.63 225.629 285.391 227.529 282.681 230.001L255.649 214.394L252.78 190.759C252.261 186.486 248.376 183.441 244.103 183.961C239.83 184.48 236.786 188.364 237.305 192.638L238.762 204.645L224.055 196.154C220.327 194 215.561 195.279 213.408 199.006C211.256 202.735 212.533 207.501 216.261 209.654L230.968 218.144L219.841 222.885C215.881 224.572 214.038 229.15 215.725 233.111C216.988 236.074 219.869 237.852 222.9 237.852C225.011 237.852 223.844 238.124 247.855 227.894L274.878 243.496C274.081 247.136 274.078 250.849 274.878 254.504L247.855 270.106L225.951 260.773C221.991 259.086 217.412 260.928 215.725 264.889C214.038 268.849 215.88 273.427 219.841 275.115L230.967 279.855L216.261 288.346C209.368 292.325 212.237 302.892 220.165 302.892C221.487 302.892 222.828 302.555 224.055 301.846L238.762 293.355L237.304 305.362C236.743 309.982 240.34 314.097 245.051 314.097C248.937 314.097 252.299 311.195 252.779 307.241L255.649 283.606L282.681 267.999C285.39 270.471 288.63 272.371 292.205 273.511V304.712L273.171 319.014C269.73 321.6 269.037 326.487 271.623 329.928C274.208 333.37 279.094 334.063 282.536 331.477L292.205 324.211V341.193C292.205 345.498 295.695 348.987 299.999 348.987C304.304 348.987 307.794 345.497 307.794 341.193V324.211L317.463 331.477C320.903 334.063 325.79 333.37 328.376 329.928C330.962 326.487 330.269 321.6 326.827 319.014L307.794 304.712V273.51C311.369 272.37 314.609 270.471 317.319 267.998L344.351 283.605L347.22 307.241C347.737 311.502 351.608 314.557 355.897 314.039C360.17 313.52 363.214 309.635 362.695 305.362L361.237 293.355L375.944 301.845C379.673 303.999 384.44 302.719 386.591 298.993C388.744 295.265 387.467 290.498 383.739 288.346ZM289.867 249C289.867 243.413 294.413 238.867 300 238.867C305.587 238.867 310.132 243.413 310.132 249C310.132 254.587 305.587 259.132 300 259.132C294.413 259.132 289.867 254.587 289.867 249Z" fill="#5BDDFC"/>
<path d="M307.794 177.442C307.794 178.498 308.999 179.101 309.844 178.468C327.217 165.445 325.826 166.471 326.303 166.169C323.646 164.493 320.125 164.524 317.464 166.522L307.794 173.788V177.442V177.442Z" fill="#00C3FF"/>
<path d="M251.569 226.435L247.855 227.894L274.878 243.496C274.08 247.143 274.08 250.856 274.878 254.504L247.855 270.106L252.262 271.81C252.657 271.962 253.099 271.928 253.464 271.716L281.396 255.543C282.443 254.938 283.014 253.76 282.846 252.562C282.503 250.125 282.512 247.669 282.876 245.23C283.035 244.16 282.514 243.105 281.577 242.566L253.821 226.602C253.134 226.207 252.306 226.146 251.569 226.435Z" fill="#00C3FF"/>
<path d="M298.58 178.013C299.412 178.564 300.522 177.968 300.522 176.971V156.807C300.522 154.032 301.976 151.604 304.158 150.222C298.879 146.881 292.206 150.803 292.206 156.997V173.789L298.58 178.013Z" fill="#00C3FF"/>
<path d="M310.421 319.903C309.34 319.089 307.794 319.859 307.794 321.212V324.211L317.464 331.477C320.116 333.471 323.637 333.521 326.304 331.839C325.87 331.565 310.019 319.599 310.421 319.903Z" fill="#00C3FF"/>
<path d="M300.522 341.193V323.037C300.522 321.189 298.467 320.083 296.924 321.1L292.206 324.212V341.003C292.206 347.202 298.882 351.117 304.158 347.778C301.976 346.396 300.522 343.967 300.522 341.193Z" fill="#00C3FF"/>
<path d="M216.261 209.653L230.968 218.144L220.017 222.81C216.105 224.477 214.083 228.953 215.643 232.909C216.859 235.993 219.801 237.852 222.9 237.852C224.698 237.852 225.762 237.307 227.162 236.71C221.762 233.43 222.319 225.372 228.157 222.885L236.356 219.391C237.561 218.878 237.662 217.208 236.528 216.553L224.577 209.653C219.51 206.728 219.35 199.433 224.324 196.308L224.216 196.246C220.556 194.133 215.796 195.18 213.554 198.762C211.201 202.525 212.452 207.454 216.261 209.653Z" fill="#00C3FF"/>
<path d="M224.578 288.347L237.205 281.056C238.061 280.562 237.985 279.302 237.076 278.915L228.157 275.115C222.319 272.628 221.763 264.571 227.165 261.291L226.123 260.847C222.234 259.19 217.635 260.803 215.841 264.63C213.959 268.648 215.794 273.391 219.841 275.115L230.968 279.856L216.261 288.346C209.369 292.325 212.238 302.892 220.166 302.892C221.488 302.892 222.828 302.555 224.055 301.846L224.323 301.692C219.364 298.576 219.5 291.278 224.578 288.347Z" fill="#00C3FF"/>
<path d="M245.621 305.363L247.576 290.206C247.69 289.324 246.742 288.696 245.974 289.144L238.762 293.356L237.326 305.188C236.532 311.729 243.601 316.431 249.202 312.888C246.737 311.329 245.246 308.45 245.621 305.363Z" fill="#00C3FF"/>
<path d="M238.762 204.644L243.549 207.443C245.289 208.46 247.44 207.04 247.187 205.04L245.621 192.637C245.246 189.548 246.738 186.669 249.205 185.111C247.74 184.183 245.958 183.735 244.102 183.961C239.829 184.479 236.785 188.364 237.304 192.637L238.762 204.644Z" fill="#00C3FF"/>
<path d="M292.206 224.489C291.815 224.614 291.43 224.751 291.047 224.894C290.956 224.928 290.865 224.961 290.774 224.996C287.764 226.157 285.024 227.863 282.681 230.001L286.73 232.301C287.251 232.596 287.907 232.489 288.308 232.044C292.514 227.367 297.951 225.214 299.806 224.676C300.231 224.553 300.522 224.165 300.522 223.722V196.002C300.522 194.293 299.718 192.684 298.352 191.657L281.66 179.115C278.609 176.822 277.496 172.659 279.21 169.249C279.886 167.905 280.874 166.887 282.012 166.169C278.278 163.805 273.264 165.013 271.055 168.96C269.177 172.346 270.146 176.712 273.324 179.1L292.206 193.288V224.489V224.489Z" fill="#00C3FF"/>
<path d="M292.206 273.514C291.815 273.39 291.43 273.252 291.047 273.11C290.956 273.076 290.865 273.043 290.774 273.008C287.764 271.847 285.024 270.14 282.681 268.002L286.73 265.703C287.251 265.407 287.907 265.515 288.308 265.96C292.514 270.636 297.951 272.789 299.806 273.327C300.231 273.451 300.522 273.838 300.522 274.281V302.002C300.522 303.71 299.718 305.32 298.352 306.346L281.66 318.889C278.609 321.181 277.496 325.345 279.21 328.754C279.885 330.099 280.873 331.116 282.012 331.834C278.273 334.201 273.259 332.983 271.054 329.044C269.176 325.658 270.146 321.292 273.323 318.904L292.205 304.715V273.514H292.206V273.514Z" fill="#00C3FF"/>
<g clip-path="url(#clip2)">
<path d="M433.935 352.837L430.258 350.714L433.04 349.529C434.03 349.107 434.49 347.962 434.069 346.972C433.647 345.982 432.502 345.522 431.512 345.944L426.036 348.277L419.28 344.376C419.378 343.932 419.43 343.472 419.43 343C419.43 342.528 419.378 342.068 419.28 341.624L426.036 337.724L431.512 340.057C432.502 340.478 433.647 340.018 434.069 339.028C434.49 338.038 434.03 336.893 433.04 336.471L430.258 335.286L433.935 333.163C434.867 332.625 435.186 331.434 434.648 330.502C434.11 329.57 432.918 329.25 431.986 329.788L428.309 331.911L428.674 328.909C428.804 327.841 428.043 326.87 426.974 326.74C425.906 326.61 424.935 327.371 424.805 328.44L424.088 334.348L417.33 338.25C416.652 337.632 415.843 337.157 414.949 336.872V329.072L419.707 325.496C420.567 324.85 420.741 323.628 420.094 322.768C419.448 321.908 418.226 321.734 417.366 322.38L414.949 324.197V319.952C414.949 318.876 414.076 318.003 413 318.003C411.924 318.003 411.052 318.876 411.052 319.952V324.197L408.634 322.381C407.774 321.734 406.552 321.908 405.906 322.768C405.259 323.628 405.433 324.85 406.293 325.496L411.052 329.072V336.872C410.158 337.157 409.348 337.632 408.67 338.25L401.912 334.349L401.195 328.44C401.065 327.371 400.094 326.61 399.026 326.74C397.957 326.87 397.196 327.841 397.326 328.909L397.691 331.911L394.014 329.788C393.082 329.25 391.89 329.57 391.352 330.502C390.814 331.434 391.133 332.625 392.065 333.163L395.742 335.286L392.96 336.471C391.97 336.893 391.51 338.038 391.931 339.028C392.247 339.769 392.967 340.213 393.725 340.213C394.253 340.213 393.961 340.281 399.964 337.724L406.719 341.624C406.52 342.534 406.519 343.462 406.719 344.376L399.964 348.277L394.488 345.943C393.498 345.522 392.353 345.982 391.931 346.972C391.509 347.962 391.97 349.107 392.96 349.529L395.742 350.714L392.065 352.837C390.342 353.831 391.059 356.473 393.041 356.473C393.372 356.473 393.707 356.389 394.014 356.212L397.691 354.089L397.326 357.091C397.186 358.245 398.085 359.274 399.263 359.274C400.234 359.274 401.075 358.549 401.195 357.56L401.912 351.652L408.67 347.75C409.348 348.368 410.157 348.843 411.051 349.128V356.928L406.293 360.504C405.432 361.15 405.259 362.372 405.906 363.232C406.552 364.093 407.774 364.266 408.634 363.619L411.051 361.803V366.048C411.051 367.124 411.924 367.997 413 367.997C414.076 367.997 414.948 367.124 414.948 366.048V361.803L417.366 363.619C418.226 364.266 419.448 364.093 420.094 363.232C420.74 362.372 420.567 361.15 419.707 360.504L414.948 356.928V349.128C415.842 348.843 416.652 348.368 417.33 347.75L424.088 351.651L424.805 357.56C424.934 358.625 425.902 359.389 426.974 359.26C428.043 359.13 428.803 358.159 428.674 357.09L428.309 354.089L431.986 356.211C432.918 356.75 434.11 356.43 434.648 355.498C435.186 354.566 434.867 353.375 433.935 352.837ZM410.467 343C410.467 341.603 411.603 340.467 413 340.467C414.397 340.467 415.533 341.603 415.533 343C415.533 344.397 414.397 345.533 413 345.533C411.603 345.533 410.467 344.397 410.467 343Z" fill="#5BDDFC"/>
<path d="M414.949 325.111C414.949 325.375 415.25 325.525 415.461 325.367C419.804 322.111 419.457 322.368 419.576 322.292C418.912 321.873 418.031 321.881 417.366 322.381L414.949 324.197V325.111V325.111Z" fill="#00C3FF"/>
<path d="M400.892 337.359L399.964 337.724L406.72 341.624C406.52 342.536 406.52 343.464 406.72 344.376L399.964 348.277L401.066 348.703C401.164 348.741 401.275 348.732 401.366 348.679L408.349 344.636C408.611 344.485 408.753 344.19 408.711 343.891C408.626 343.281 408.628 342.667 408.719 342.057C408.759 341.79 408.629 341.526 408.394 341.391L401.455 337.4C401.284 337.302 401.076 337.286 400.892 337.359Z" fill="#00C3FF"/>
<path d="M412.645 325.253C412.853 325.391 413.131 325.242 413.131 324.993V319.952C413.131 319.258 413.494 318.651 414.04 318.306C412.72 317.47 411.052 318.451 411.052 319.999V324.197L412.645 325.253Z" fill="#00C3FF"/>
<path d="M415.605 360.726C415.335 360.522 414.949 360.715 414.949 361.053V361.803L417.366 363.619C418.029 364.118 418.909 364.13 419.576 363.71C419.468 363.641 415.505 360.65 415.605 360.726Z" fill="#00C3FF"/>
<path d="M413.13 366.048V361.509C413.13 361.047 412.617 360.771 412.231 361.025L411.051 361.803V366.001C411.051 367.551 412.721 368.529 414.039 367.695C413.494 367.349 413.13 366.742 413.13 366.048Z" fill="#00C3FF"/>
<path d="M392.065 333.163L395.742 335.286L393.004 336.453C392.026 336.869 391.521 337.988 391.911 338.977C392.215 339.748 392.95 340.213 393.725 340.213C394.174 340.213 394.44 340.077 394.791 339.928C393.441 339.108 393.58 337.093 395.039 336.471L397.089 335.598C397.39 335.469 397.416 335.052 397.132 334.888L394.144 333.163C392.878 332.432 392.838 330.608 394.081 329.827L394.054 329.811C393.139 329.283 391.949 329.545 391.389 330.441C390.8 331.381 391.113 332.614 392.065 333.163Z" fill="#00C3FF"/>
<path d="M394.145 352.837L397.301 351.014C397.515 350.891 397.496 350.576 397.269 350.479L395.039 349.529C393.58 348.907 393.441 346.893 394.791 346.073L394.531 345.962C393.559 345.548 392.409 345.951 391.96 346.908C391.49 347.912 391.949 349.098 392.96 349.529L395.742 350.714L392.065 352.837C390.342 353.831 391.059 356.473 393.041 356.473C393.372 356.473 393.707 356.389 394.014 356.212L394.081 356.173C392.841 355.394 392.875 353.57 394.145 352.837Z" fill="#00C3FF"/>
<path d="M399.405 357.091L399.894 353.302C399.922 353.081 399.685 352.924 399.493 353.036L397.691 354.089L397.331 357.047C397.133 358.682 398.9 359.858 400.301 358.972C399.684 358.582 399.311 357.863 399.405 357.091Z" fill="#00C3FF"/>
<path d="M397.691 331.911L398.887 332.611C399.322 332.865 399.86 332.51 399.797 332.01L399.405 328.909C399.311 328.137 399.684 327.417 400.301 327.028C399.935 326.796 399.49 326.684 399.026 326.74C397.957 326.87 397.196 327.841 397.326 328.909L397.691 331.911Z" fill="#00C3FF"/>
<path d="M411.051 336.872C410.954 336.904 410.857 336.938 410.762 336.974C410.739 336.982 410.716 336.99 410.694 336.999C409.941 337.289 409.256 337.716 408.67 338.25L409.683 338.825C409.813 338.899 409.977 338.872 410.077 338.761C411.129 337.592 412.488 337.054 412.952 336.919C413.058 336.888 413.13 336.791 413.13 336.681V329.751C413.13 329.323 412.93 328.921 412.588 328.664L408.415 325.529C407.652 324.956 407.374 323.915 407.802 323.062C407.971 322.726 408.218 322.472 408.503 322.292C407.569 321.701 406.316 322.003 405.764 322.99C405.294 323.836 405.536 324.928 406.331 325.525L411.051 329.072V336.872V336.872Z" fill="#00C3FF"/>
<path d="M411.051 349.129C410.954 349.097 410.857 349.063 410.762 349.027C410.739 349.019 410.716 349.011 410.694 349.002C409.941 348.712 409.256 348.285 408.67 347.751L409.683 347.176C409.813 347.102 409.977 347.129 410.077 347.24C411.129 348.409 412.488 348.947 412.952 349.082C413.058 349.113 413.13 349.21 413.13 349.32V356.25C413.13 356.678 412.93 357.08 412.588 357.337L408.415 360.472C407.652 361.045 407.374 362.086 407.802 362.939C407.971 363.275 408.218 363.529 408.503 363.709C407.568 364.3 406.315 363.996 405.764 363.011C405.294 362.165 405.536 361.073 406.331 360.476L411.051 356.929V349.129H411.051V349.129Z" fill="#00C3FF"/>
</g>
<g clip-path="url(#clip3)">
<path d="M192.561 332.902L190.355 331.628L192.024 330.917C192.618 330.664 192.894 329.977 192.641 329.383C192.388 328.789 191.701 328.513 191.107 328.766L187.822 330.166L183.768 327.826C183.827 327.559 183.858 327.283 183.858 327C183.858 326.717 183.827 326.441 183.768 326.174L187.822 323.834L191.107 325.234C191.701 325.487 192.388 325.211 192.641 324.617C192.894 324.023 192.618 323.336 192.024 323.083L190.355 322.372L192.561 321.098C193.12 320.775 193.312 320.06 192.989 319.501C192.666 318.942 191.951 318.75 191.392 319.073L189.186 320.347L189.404 318.546C189.482 317.905 189.026 317.322 188.385 317.244C187.744 317.166 187.161 317.623 187.083 318.264L186.653 321.809L182.598 324.15C182.191 323.779 181.706 323.494 181.169 323.323V318.643L184.024 316.498C184.54 316.11 184.644 315.377 184.257 314.861C183.869 314.344 183.136 314.241 182.62 314.628L181.169 315.718V313.171C181.169 312.525 180.646 312.002 180 312.002C179.354 312.002 178.831 312.525 178.831 313.171V315.718L177.38 314.628C176.864 314.24 176.131 314.345 175.743 314.861C175.356 315.377 175.46 316.11 175.976 316.498L178.831 318.643V323.323C178.295 323.494 177.809 323.779 177.402 324.15L173.347 321.809L172.917 318.264C172.839 317.623 172.256 317.166 171.615 317.244C170.974 317.322 170.518 317.905 170.596 318.546L170.814 320.347L168.608 319.073C168.049 318.75 167.334 318.942 167.011 319.501C166.688 320.06 166.88 320.775 167.439 321.098L169.645 322.372L167.976 323.083C167.382 323.336 167.106 324.023 167.359 324.617C167.548 325.061 167.98 325.328 168.435 325.328C168.752 325.328 168.577 325.369 172.178 323.834L176.232 326.174C176.112 326.72 176.112 327.277 176.232 327.826L172.178 330.166L168.893 328.766C168.299 328.513 167.612 328.789 167.359 329.383C167.106 329.977 167.382 330.664 167.976 330.917L169.645 331.628L167.439 332.902C166.405 333.499 166.836 335.084 168.025 335.084C168.223 335.084 168.424 335.033 168.608 334.927L170.814 333.653L170.596 335.454C170.511 336.147 171.051 336.765 171.758 336.765C172.34 336.765 172.845 336.329 172.917 335.736L173.347 332.191L177.402 329.85C177.809 330.221 178.294 330.506 178.831 330.677V335.357L175.976 337.502C175.459 337.89 175.355 338.623 175.743 339.139C176.131 339.655 176.864 339.759 177.38 339.372L178.831 338.282V340.829C178.831 341.475 179.354 341.998 180 341.998C180.646 341.998 181.169 341.475 181.169 340.829V338.282L182.619 339.372C183.135 339.759 183.869 339.655 184.256 339.139C184.644 338.623 184.54 337.89 184.024 337.502L181.169 335.357V330.677C181.705 330.506 182.191 330.221 182.598 329.85L186.653 332.191L187.083 335.736C187.161 336.375 187.741 336.834 188.385 336.756C189.026 336.678 189.482 336.095 189.404 335.454L189.186 333.653L191.392 334.927C191.951 335.25 192.666 335.058 192.989 334.499C193.312 333.94 193.12 333.225 192.561 332.902ZM178.48 327C178.48 326.162 179.162 325.48 180 325.48C180.838 325.48 181.52 326.162 181.52 327C181.52 327.838 180.838 328.52 180 328.52C179.162 328.52 178.48 327.838 178.48 327Z" fill="#5BDDFC"/>
<path d="M181.169 316.266C181.169 316.425 181.35 316.515 181.477 316.42C184.083 314.467 183.874 314.621 183.945 314.575C183.547 314.324 183.019 314.329 182.62 314.628L181.169 315.718V316.266V316.266Z" fill="#00C3FF"/>
<path d="M172.735 323.615L172.178 323.834L176.232 326.174C176.112 326.721 176.112 327.278 176.232 327.826L172.178 330.166L172.839 330.422C172.898 330.444 172.965 330.439 173.02 330.407L177.209 327.982C177.366 327.891 177.452 327.714 177.427 327.534C177.375 327.169 177.377 326.8 177.431 326.434C177.455 326.274 177.377 326.116 177.237 326.035L173.073 323.64C172.97 323.581 172.846 323.572 172.735 323.615Z" fill="#00C3FF"/>
<path d="M179.787 316.352C179.912 316.435 180.078 316.345 180.078 316.196V313.171C180.078 312.755 180.296 312.391 180.624 312.183C179.832 311.682 178.831 312.27 178.831 313.2V315.718L179.787 316.352Z" fill="#00C3FF"/>
<path d="M181.563 337.635C181.401 337.513 181.169 337.629 181.169 337.832V338.282L182.62 339.372C183.017 339.671 183.546 339.678 183.946 339.426C183.88 339.385 181.503 337.59 181.563 337.635Z" fill="#00C3FF"/>
<path d="M180.078 340.829V338.105C180.078 337.828 179.77 337.662 179.539 337.815L178.831 338.282V340.8C178.831 341.73 179.832 342.317 180.624 341.817C180.296 341.609 180.078 341.245 180.078 340.829Z" fill="#00C3FF"/>
<path d="M167.439 321.098L169.645 322.372L168.003 323.071C167.416 323.321 167.112 323.993 167.346 324.586C167.529 325.049 167.97 325.328 168.435 325.328C168.705 325.328 168.864 325.246 169.074 325.156C168.264 324.664 168.348 323.456 169.224 323.083L170.453 322.559C170.634 322.482 170.649 322.231 170.479 322.133L168.687 321.098C167.927 320.659 167.903 319.565 168.649 319.096L168.632 319.087C168.083 318.77 167.369 318.927 167.033 319.464C166.68 320.029 166.868 320.768 167.439 321.098Z" fill="#00C3FF"/>
<path d="M168.687 332.902L170.581 331.808C170.709 331.734 170.698 331.545 170.561 331.487L169.224 330.917C168.348 330.544 168.264 329.336 169.075 328.844L168.918 328.777C168.335 328.529 167.645 328.77 167.376 329.345C167.094 329.947 167.369 330.659 167.976 330.917L169.645 331.628L167.439 332.902C166.405 333.499 166.836 335.084 168.025 335.084C168.223 335.084 168.424 335.033 168.608 334.927L168.649 334.904C167.905 334.436 167.925 333.342 168.687 332.902Z" fill="#00C3FF"/>
<path d="M171.843 335.454L172.136 333.181C172.153 333.049 172.011 332.954 171.896 333.022L170.814 333.653L170.599 335.428C170.48 336.409 171.54 337.115 172.38 336.583C172.01 336.349 171.787 335.918 171.843 335.454Z" fill="#00C3FF"/>
<path d="M170.814 320.347L171.532 320.766C171.793 320.919 172.116 320.706 172.078 320.406L171.843 318.546C171.787 318.082 172.011 317.65 172.381 317.417C172.161 317.278 171.894 317.21 171.615 317.244C170.974 317.322 170.518 317.905 170.596 318.546L170.814 320.347Z" fill="#00C3FF"/>
<path d="M178.831 323.323C178.772 323.342 178.714 323.363 178.657 323.384C178.643 323.389 178.63 323.394 178.616 323.399C178.165 323.573 177.754 323.829 177.402 324.15L178.01 324.495C178.088 324.539 178.186 324.523 178.246 324.457C178.877 323.755 179.693 323.432 179.971 323.351C180.035 323.333 180.078 323.275 180.078 323.208V319.05C180.078 318.794 179.958 318.553 179.753 318.399L177.249 316.517C176.791 316.173 176.624 315.549 176.881 315.037C176.983 314.836 177.131 314.683 177.302 314.575C176.742 314.221 175.99 314.402 175.658 314.994C175.377 315.502 175.522 316.157 175.999 316.515L178.831 318.643V323.323V323.323Z" fill="#00C3FF"/>
<path d="M178.831 330.677C178.772 330.658 178.714 330.638 178.657 330.616C178.643 330.611 178.63 330.606 178.616 330.601C178.165 330.427 177.754 330.171 177.402 329.85L178.01 329.505C178.088 329.461 178.186 329.477 178.246 329.544C178.877 330.245 179.693 330.568 179.971 330.649C180.035 330.668 180.078 330.726 180.078 330.792V334.95C180.078 335.207 179.958 335.448 179.753 335.602L177.249 337.483C176.791 337.827 176.624 338.452 176.881 338.963C176.983 339.165 177.131 339.317 177.302 339.425C176.741 339.78 175.989 339.597 175.658 339.007C175.376 338.499 175.522 337.844 175.998 337.486L178.831 335.357V330.677H178.831V330.677Z" fill="#00C3FF"/>
</g>
<path d="M369.374 351.934L367.903 351.085L369.016 350.611C369.412 350.442 369.596 349.984 369.427 349.588C369.259 349.192 368.801 349.008 368.405 349.177L366.215 350.11L363.512 348.55C363.551 348.372 363.572 348.188 363.572 347.999C363.572 347.81 363.551 347.626 363.512 347.449L366.215 345.889L368.405 346.822C368.801 346.991 369.259 346.806 369.427 346.41C369.596 346.014 369.412 345.557 369.016 345.388L367.903 344.914L369.374 344.065C369.747 343.85 369.874 343.373 369.659 343C369.444 342.627 368.967 342.499 368.594 342.715L367.124 343.564L367.27 342.363C367.321 341.936 367.017 341.547 366.59 341.495C366.162 341.443 365.774 341.748 365.722 342.175L365.435 344.539L362.732 346.099C362.461 345.852 362.137 345.662 361.779 345.548V342.428L363.683 340.998C364.027 340.739 364.096 340.251 363.838 339.906C363.579 339.562 363.091 339.493 362.746 339.752L361.779 340.478V338.78C361.779 338.35 361.43 338.001 361 338.001C360.57 338.001 360.221 338.35 360.221 338.78V340.478L359.254 339.752C358.909 339.493 358.421 339.562 358.162 339.907C357.904 340.251 357.973 340.739 358.317 340.998L360.221 342.428V345.548C359.863 345.662 359.539 345.852 359.268 346.099L356.565 344.539L356.278 342.175C356.226 341.748 355.838 341.443 355.41 341.495C354.983 341.547 354.679 341.936 354.73 342.363L354.876 343.564L353.406 342.715C353.033 342.499 352.556 342.627 352.341 343C352.126 343.373 352.253 343.85 352.626 344.065L354.097 344.914L352.984 345.388C352.588 345.557 352.404 346.014 352.573 346.41C352.699 346.707 352.987 346.885 353.29 346.885C353.501 346.885 353.384 346.912 355.785 345.889L358.488 347.449C358.408 347.813 358.408 348.184 358.488 348.55L355.785 350.11L353.595 349.177C353.199 349.008 352.741 349.192 352.572 349.588C352.404 349.984 352.588 350.442 352.984 350.611L354.097 351.085L352.626 351.934C351.937 352.332 352.224 353.389 353.017 353.389C353.149 353.389 353.283 353.355 353.406 353.284L354.876 352.435L354.73 353.636C354.674 354.098 355.034 354.509 355.505 354.509C355.894 354.509 356.23 354.219 356.278 353.823L356.565 351.46L359.268 349.899C359.539 350.146 359.863 350.336 360.221 350.45V353.571L358.317 355.001C357.973 355.259 357.904 355.748 358.162 356.092C358.421 356.436 358.909 356.506 359.254 356.247L360.221 355.52V357.219C360.221 357.649 360.57 357.998 361 357.998C361.43 357.998 361.779 357.649 361.779 357.219V355.52L362.746 356.247C363.09 356.506 363.579 356.436 363.838 356.092C364.096 355.748 364.027 355.259 363.683 355.001L361.779 353.571V350.45C362.137 350.336 362.461 350.146 362.732 349.899L365.435 351.46L365.722 353.823C365.774 354.25 366.161 354.555 366.59 354.503C367.017 354.451 367.321 354.063 367.269 353.636L367.124 352.435L368.594 353.284C368.967 353.499 369.444 353.371 369.659 352.999C369.874 352.626 369.747 352.149 369.374 351.934ZM359.987 347.999C359.987 347.441 360.441 346.986 361 346.986C361.559 346.986 362.013 347.441 362.013 347.999C362.013 348.558 361.559 349.013 361 349.013C360.441 349.013 359.987 348.558 359.987 347.999Z" fill="#5BDDFC"/>
<path d="M361.779 340.844C361.779 340.95 361.9 341.01 361.984 340.947C363.722 339.644 363.583 339.747 363.63 339.717C363.365 339.549 363.012 339.552 362.746 339.752L361.779 340.479V340.844V340.844Z" fill="#00C3FF"/>
<path d="M356.157 345.743L355.785 345.889L358.488 347.45C358.408 347.814 358.408 348.186 358.488 348.55L355.785 350.111L356.226 350.281C356.266 350.296 356.31 350.293 356.346 350.272L359.14 348.654C359.244 348.594 359.301 348.476 359.285 348.356C359.25 348.112 359.251 347.867 359.288 347.623C359.303 347.516 359.251 347.41 359.158 347.357L356.382 345.76C356.313 345.721 356.231 345.715 356.157 345.743Z" fill="#00C3FF"/>
<path d="M360.858 340.901C360.941 340.956 361.052 340.897 361.052 340.797V338.781C361.052 338.503 361.198 338.26 361.416 338.122C360.888 337.788 360.221 338.18 360.221 338.8V340.479L360.858 340.901Z" fill="#00C3FF"/>
<path d="M362.042 355.09C361.934 355.009 361.779 355.086 361.779 355.221V355.521L362.746 356.248C363.012 356.447 363.364 356.452 363.63 356.284C363.587 356.256 362.002 355.06 362.042 355.09Z" fill="#00C3FF"/>
<path d="M361.052 357.219V355.404C361.052 355.219 360.847 355.108 360.692 355.21L360.221 355.521V357.2C360.221 357.82 360.888 358.212 361.416 357.878C361.198 357.739 361.052 357.497 361.052 357.219Z" fill="#00C3FF"/>
<path d="M352.626 344.065L354.097 344.914L353.002 345.381C352.61 345.548 352.408 345.995 352.564 346.391C352.686 346.699 352.98 346.885 353.29 346.885C353.47 346.885 353.576 346.831 353.716 346.771C353.176 346.443 353.232 345.637 353.816 345.388L354.636 345.039C354.756 344.988 354.766 344.821 354.653 344.755L353.458 344.065C352.951 343.773 352.935 343.043 353.432 342.731L353.422 342.724C353.056 342.513 352.58 342.618 352.355 342.976C352.12 343.352 352.245 343.845 352.626 344.065Z" fill="#00C3FF"/>
<path d="M353.457 351.935L354.72 351.206C354.806 351.156 354.798 351.03 354.707 350.991L353.815 350.611C353.231 350.363 353.176 349.557 353.716 349.229L353.612 349.185C353.223 349.019 352.763 349.18 352.584 349.563C352.395 349.965 352.579 350.439 352.984 350.611L354.096 351.086L352.626 351.935C351.936 352.332 352.223 353.389 353.016 353.389C353.148 353.389 353.282 353.355 353.405 353.285L353.432 353.269C352.936 352.958 352.95 352.228 353.457 351.935Z" fill="#00C3FF"/>
<path d="M355.562 353.636L355.758 352.121C355.769 352.032 355.674 351.97 355.597 352.014L354.876 352.436L354.733 353.619C354.653 354.273 355.36 354.743 355.92 354.389C355.674 354.233 355.525 353.945 355.562 353.636Z" fill="#00C3FF"/>
<path d="M354.876 343.564L355.355 343.844C355.529 343.946 355.744 343.804 355.719 343.604L355.562 342.364C355.525 342.055 355.674 341.767 355.921 341.611C355.774 341.518 355.596 341.474 355.41 341.496C354.983 341.548 354.679 341.936 354.73 342.364L354.876 343.564Z" fill="#00C3FF"/>
<path d="M360.221 345.549C360.181 345.561 360.143 345.575 360.105 345.589C360.096 345.593 360.086 345.596 360.077 345.599C359.776 345.716 359.502 345.886 359.268 346.1L359.673 346.33C359.725 346.359 359.791 346.349 359.831 346.304C360.251 345.837 360.795 345.621 360.981 345.567C361.023 345.555 361.052 345.516 361.052 345.472V342.7C361.052 342.529 360.972 342.368 360.835 342.266L359.166 341.011C358.861 340.782 358.75 340.366 358.921 340.025C358.989 339.89 359.087 339.789 359.201 339.717C358.828 339.48 358.326 339.601 358.105 339.996C357.918 340.334 358.015 340.771 358.332 341.01L360.221 342.429V345.549V345.549Z" fill="#00C3FF"/>
<path d="M360.221 350.451C360.181 350.439 360.143 350.425 360.105 350.411C360.096 350.407 360.086 350.404 360.077 350.401C359.776 350.285 359.502 350.114 359.268 349.9L359.673 349.67C359.725 349.641 359.791 349.651 359.831 349.696C360.251 350.164 360.795 350.379 360.981 350.433C361.023 350.445 361.052 350.484 361.052 350.528V353.3C361.052 353.471 360.972 353.632 360.835 353.735L359.166 354.989C358.861 355.218 358.75 355.634 358.921 355.975C358.989 356.11 359.087 356.212 359.201 356.283C358.827 356.52 358.326 356.398 358.105 356.004C357.918 355.666 358.015 355.229 358.332 354.99L360.221 353.571V350.451H360.221V350.451Z" fill="#00C3FF"/>
<defs>
<clipPath id="clip0">
<rect width="300" height="300" fill="white" transform="translate(301)"/>
</clipPath>
<clipPath id="clip1">
<rect width="300" height="300" fill="white"/>
</clipPath>
<clipPath id="clip2">
<rect width="50" height="50" fill="white" transform="translate(388 318)"/>
</clipPath>
<clipPath id="clip3">
<rect width="30" height="30" fill="white" transform="translate(165 312)"/>
</clipPath>
</defs>
</svg>
