<svg width="512" height="512" viewBox="0 0 512 512" fill="none" xmlns="http://www.w3.org/2000/svg">
<g id="005-snowman 1">
<g id="Group">
<path id="Vector" d="M460.629 282.161L450.768 280.379L462.256 271.804C465.675 269.251 466.379 264.41 463.825 260.99C461.272 257.57 456.432 256.868 453.012 259.42L440.457 268.792L441.036 257.454C441.253 253.192 437.975 249.561 433.715 249.343C429.44 249.122 425.823 252.404 425.604 256.665L424.371 280.8L361.443 327.774C358.024 330.327 357.32 335.168 359.874 338.588C361.391 340.621 363.716 341.693 366.072 341.693C367.68 341.693 369.301 341.193 370.687 340.158L433.833 293.021L457.882 297.367C458.347 297.451 458.809 297.492 459.266 297.492C462.931 297.492 466.186 294.873 466.861 291.139C467.617 286.939 464.828 282.921 460.629 282.161Z" fill="#6D4D42"/>
<path id="Vector_2" d="M150.556 327.775L87.628 280.801L86.395 256.666C86.177 252.404 82.526 249.121 78.284 249.345C74.022 249.562 70.745 253.194 70.962 257.456L71.541 268.794L58.986 259.422C55.567 256.869 50.724 257.573 48.173 260.992C45.619 264.411 46.323 269.253 49.742 271.806L61.23 280.381L51.369 282.163C47.17 282.922 44.381 286.941 45.139 291.14C45.814 294.874 49.067 297.493 52.733 297.493C53.188 297.493 53.652 297.452 54.117 297.368L78.166 293.022L141.312 340.159C142.7 341.194 144.32 341.694 145.927 341.694C148.282 341.694 150.608 340.621 152.125 338.589C154.678 335.168 153.975 330.328 150.556 327.775Z" fill="#6D4D42"/>
</g>
<g id="Group_2">
<path id="Vector_3" d="M402.784 296.914L361.442 327.775C358.023 330.328 357.319 335.169 359.873 338.589C361.39 340.622 363.715 341.694 366.071 341.694C367.679 341.694 369.3 341.194 370.686 340.159L409.62 311.097C407.56 306.246 405.277 301.515 402.784 296.914Z" fill="#61443B"/>
<path id="Vector_4" d="M150.556 327.775L109.214 296.914C106.722 301.516 104.438 306.246 102.379 311.095L141.314 340.158C142.702 341.193 144.322 341.693 145.929 341.693C148.284 341.693 150.61 340.62 152.127 338.588C154.678 335.168 153.975 330.328 150.556 327.775Z" fill="#61443B"/>
</g>
<path id="Vector_5" d="M255.999 511.999C331.055 511.999 391.9 451.154 391.9 376.098C391.9 301.042 331.055 240.197 255.999 240.197C180.943 240.197 120.098 301.042 120.098 376.098C120.098 451.154 180.943 511.999 255.999 511.999Z" fill="#FFFFFF"/>
<path id="Vector_6" d="M171.605 376.096C171.605 309.845 219.014 254.677 281.754 242.64C273.414 241.04 264.807 240.192 255.999 240.192C180.941 240.192 120.095 301.039 120.095 376.096C120.095 451.153 180.941 512 255.999 512C264.806 512 273.413 511.152 281.754 509.552C219.014 497.516 171.605 442.347 171.605 376.096Z" fill="#D4D3D3"/>
<path id="Vector_7" d="M131.77 278.56L167.642 242.896L206.765 282.248L170.893 317.912C167.448 321.337 161.879 321.321 158.454 317.876L131.733 291C128.309 287.554 128.325 281.985 131.77 278.56Z" fill="#388E3C"/>
<path id="Vector_8" d="M336.305 197.001C366.79 223.399 372.829 306.48 255.999 306.48C139.169 306.48 145.209 223.399 175.693 197.001H336.305V197.001Z" fill="#66BB6A"/>
<path id="Vector_9" d="M206.599 197.001H175.694C145.21 223.399 139.17 306.48 256 306.48C261.413 306.48 266.558 306.3 271.453 305.957C170.69 298.903 177.527 222.176 206.599 197.001Z" fill="#43A047"/>
<path id="Vector_10" d="M255.999 255.506C302.579 255.506 340.34 217.745 340.34 171.165C340.34 124.585 302.579 86.824 255.999 86.824C209.419 86.824 171.658 124.585 171.658 171.165C171.658 217.745 209.419 255.506 255.999 255.506Z" fill="#FFFFFF"/>
<path id="Vector_11" d="M192.262 171.169C192.262 128.079 224.584 92.561 266.301 87.476C262.922 87.064 259.489 86.827 255.999 86.827C209.418 86.827 171.658 124.588 171.658 171.168C171.658 217.748 209.419 255.509 255.999 255.509C259.489 255.509 262.922 255.272 266.301 254.86C224.584 249.777 192.262 214.259 192.262 171.169Z" fill="#D4D3D3"/>
<g id="Group_3">
<path id="Vector_12" d="M255.999 360.491C264.613 360.491 271.596 353.508 271.596 344.894C271.596 336.28 264.613 329.297 255.999 329.297C247.385 329.297 240.402 336.28 240.402 344.894C240.402 353.508 247.385 360.491 255.999 360.491Z" fill="#ED553B"/>
<path id="Vector_13" d="M255.999 414.009C264.613 414.009 271.596 407.026 271.596 398.412C271.596 389.798 264.613 382.815 255.999 382.815C247.385 382.815 240.402 389.798 240.402 398.412C240.402 407.026 247.385 414.009 255.999 414.009Z" fill="#ED553B"/>
<path id="Vector_14" d="M255.999 467.527C264.613 467.527 271.596 460.544 271.596 451.93C271.596 443.316 264.613 436.333 255.999 436.333C247.385 436.333 240.402 443.316 240.402 451.93C240.402 460.544 247.385 467.527 255.999 467.527Z" fill="#ED553B"/>
<path id="Vector_15" d="M255.999 189.152C265.933 189.152 273.986 181.099 273.986 171.165C273.986 161.231 265.933 153.178 255.999 153.178C246.065 153.178 238.012 161.231 238.012 171.165C238.012 181.099 246.065 189.152 255.999 189.152Z" fill="#ED553B"/>
</g>
<g id="Group_4">
<path id="Vector_16" d="M255.999 227.122C243.385 227.122 231.974 221.554 225.472 212.227C223.032 208.726 223.891 203.91 227.391 201.471C230.893 199.029 235.708 199.891 238.147 203.39C241.707 208.498 248.548 211.67 255.998 211.67C263.446 211.67 270.287 208.498 273.848 203.392C276.288 199.894 281.105 199.033 284.604 201.475C288.104 203.916 288.963 208.732 286.521 212.232C280.02 221.555 268.61 227.122 255.999 227.122Z" fill="#2B2B27"/>
<path id="Vector_17" d="M217.553 162.524C223.403 162.524 228.146 157.781 228.146 151.931C228.146 146.081 223.403 141.338 217.553 141.338C211.703 141.338 206.96 146.081 206.96 151.931C206.96 157.781 211.703 162.524 217.553 162.524Z" fill="#2B2B27"/>
<path id="Vector_18" d="M294.445 162.524C300.295 162.524 305.038 157.781 305.038 151.931C305.038 146.081 300.295 141.338 294.445 141.338C288.595 141.338 283.852 146.081 283.852 151.931C283.852 157.781 288.595 162.524 294.445 162.524Z" fill="#2B2B27"/>
</g>
<path id="Vector_19" d="M253.858 32.821L190.622 51.758L195.828 86.832L255.999 103.517L311.889 86.832L317.094 51.758L253.858 32.821Z" fill="#ED553B"/>
<path id="Vector_20" d="M270.882 99.074L226.734 86.832L220.208 42.898L190.622 51.758L195.804 86.666L195.828 86.832L235.943 97.955L255.999 103.517L270.882 99.074Z" fill="#D34D49"/>
<g id="Group_5">
<path id="Vector_21" d="M361.552 86.824H150.447V120.198H361.552V86.824Z" fill="#2B2B27"/>
<path id="Vector_22" d="M324.787 0L317.094 51.758H190.622L182.929 0H324.787Z" fill="#2B2B27"/>
</g>
<path id="Vector_23" d="M221.523 51.758L213.835 0H182.929L190.622 51.758H221.523Z" fill="black" fill-opacity="0.47"/>
</g>
</svg>
